<svg width="24" height="20" viewBox="0 0 24 20" fill="none" xmlns="http://www.w3.org/2000/svg">
<path d="M1.42188 19.3164H2.60714C3.35045 19.3164 3.93301 18.7439 3.93301 18.0006V16.3131C6.16295 16.4537 9.38727 16.5542 11.9687 16.5542C14.5603 16.5542 17.7846 16.4537 20.0145 16.3131V18.0006C20.0145 18.7439 20.587 19.3164 21.3403 19.3164H22.5256C23.2789 19.3164 23.8615 18.7439 23.8615 18.0006V12.2048C23.8615 10.5173 23.5201 9.56308 22.5859 8.35772L21.7423 7.26285C21.3706 5.45479 20.7075 3.55635 20.356 2.81308C19.8236 1.67801 18.7789 1.00502 17.4431 0.824208C16.7701 0.743894 14.5703 0.683594 11.9687 0.683594C9.37724 0.683594 7.17747 0.753922 6.50444 0.824208C5.16854 0.984922 4.12389 1.67801 3.59152 2.81308C3.23997 3.55635 2.57701 5.45479 2.20535 7.26285L1.36158 8.35772C0.427466 9.56308 0.0859375 10.5173 0.0859375 12.2048V18.0006C0.0859375 18.7439 0.668537 19.3164 1.42188 19.3164ZM4.23438 6.42915C4.47545 5.32421 4.95759 3.88785 5.28905 3.30525C5.56025 2.83314 5.85155 2.63227 6.39395 2.56194C7.15737 2.45145 8.86497 2.39119 11.9687 2.39119C15.0826 2.39119 16.7902 2.43135 17.5536 2.56194C18.0859 2.64229 18.3772 2.83314 18.6584 3.30525C19.0001 3.87778 19.4521 5.32421 19.7131 6.42915C19.8036 6.80077 19.6528 6.94142 19.2612 6.91125C17.5938 6.81084 15.6049 6.70035 11.9687 6.70035C8.34262 6.70035 6.35379 6.81084 4.68639 6.91125C4.29464 6.94142 4.15402 6.80077 4.23438 6.42915ZM4.64619 13.9526C3.69198 13.9526 2.97879 13.2293 2.97879 12.2852C2.97879 11.3309 3.69198 10.6178 4.64619 10.6178C5.60045 10.6178 6.31359 11.3309 6.31359 12.2852C6.31359 13.2293 5.60045 13.9526 4.64619 13.9526ZM19.3013 13.9526C18.3472 13.9526 17.6339 13.2293 17.6339 12.2852C17.6339 11.3309 18.3472 10.6178 19.3013 10.6178C20.2455 10.6178 20.9688 11.3309 20.9688 12.2852C20.9688 13.2293 20.2455 13.9526 19.3013 13.9526ZM9.30691 13.4905C8.60379 13.4905 8.11158 12.9883 8.11158 12.2852C8.11158 11.572 8.60379 11.0798 9.30691 11.0798H14.6406C15.3438 11.0798 15.8359 11.572 15.8359 12.2852C15.8359 12.9883 15.3438 13.4905 14.6406 13.4905H9.30691Z" fill="black"/>
</svg>
